<?xml version="1.0" encoding="UTF-8" standalone="no"?>
<svg
   xmlns:dc="http://purl.org/dc/elements/1.1/"
   xmlns:cc="http://creativecommons.org/ns#"
   xmlns:rdf="http://www.w3.org/1999/02/22-rdf-syntax-ns#"
   xmlns:svg="http://www.w3.org/2000/svg"
   xmlns="http://www.w3.org/2000/svg"
   xmlns:sodipodi="http://sodipodi.sourceforge.net/DTD/sodipodi-0.dtd"
   xmlns:inkscape="http://www.inkscape.org/namespaces/inkscape"
   id="Ebene_2"
   viewBox="0 0 343 435.21"
   version="1.1"
   sodipodi:docname="armor.svg"
   inkscape:version="1.0.2 (e86c870879, 2021-01-15, custom)">
  <metadata
     id="metadata24">
    <rdf:RDF>
      <cc:Work
         rdf:about="">
        <dc:format>image/svg+xml</dc:format>
        <dc:type
           rdf:resource="http://purl.org/dc/dcmitype/StillImage" />
      </cc:Work>
    </rdf:RDF>
  </metadata>
  <sodipodi:namedview
     pagecolor="#ffffff"
     bordercolor="#666666"
     borderopacity="1"
     objecttolerance="10"
     gridtolerance="10"
     guidetolerance="10"
     inkscape:pageopacity="0"
     inkscape:pageshadow="2"
     inkscape:window-width="820"
     inkscape:window-height="480"
     id="namedview22"
     showgrid="false"
     inkscape:zoom="2.3161233"
     inkscape:cx="171.5"
     inkscape:cy="217.605"
     inkscape:window-x="0"
     inkscape:window-y="0"
     inkscape:window-maximized="0"
     inkscape:current-layer="Ebene_2" />
  <defs
     id="defs4">
    <style
       id="style2">.cls-1{fill:#1d1d1b;}</style>
  </defs>
  <g
     id="Ebene_6"
     style="fill:#ffffff">
    <g
       id="g18"
       style="fill:#ffffff">
      <path
         class="cls-1"
         d="M31.79,110.88c-.19-1.28-.37-2.53-.6-3.77-2.28-12.61-4.43-21.63-13.13-31.64-5.05-5.81-11.13-10.54-18.06-14.07,7.11-18.09,5.59-29.12,4.56-33.15,15.45-8.5,40.12-9.8,53.7-9.8,5.32,0,9.59,.18,12.2,.34,2.2,6.01,6.34,14.78,13.92,24.39,7.62,9.67,17.33,18.45,28.86,26.1-9.99,16.17-27.08,28.33-50.81,36.16-12.32,4.06-23.77,5.96-30.44,6.79-.07-.44-.13-.9-.2-1.35Z"
         id="path6"
         style="fill:#ffffff" />
      <path
         class="cls-1"
         d="M171.5,79.24c-32.57-9.45-57.92-24.61-73.34-43.88-6.95-8.68-10.59-16.52-12.49-22l.05-.02,.21-.18c4.74-4.09,9.61-8.22,14.32-12.21l1.12-.95c.62,.69,1.23,1.39,1.84,2.08,2.25,2.55,4.57,5.18,7.05,7.66,2.28,2.27,4.02,4.2,5.7,6.07,4.47,4.97,8.34,9.26,19.77,16.93,15.51,10.4,34.38,16.3,35.17,16.55l.59,.18,.59-.18c.79-.25,19.66-6.15,35.17-16.55,11.43-7.66,15.3-11.96,19.77-16.92,1.68-1.87,3.42-3.79,5.7-6.07,2.48-2.48,4.81-5.11,7.06-7.66,.61-.69,1.22-1.38,1.83-2.07l1.21,1.02c4.68,3.97,9.52,8.07,14.23,12.14l.21,.18,.05,.02c-1.9,5.48-5.54,13.31-12.49,22-15.41,19.27-40.77,34.43-73.34,43.88Z"
         id="path8"
         style="fill:#ffffff" />
      <path
         class="cls-1"
         d="M311.02,112.23c-6.67-.84-18.11-2.73-30.44-6.79-23.74-7.83-40.82-19.98-50.81-36.16,11.54-7.66,21.24-16.43,28.86-26.1,7.57-9.61,11.71-18.37,13.92-24.39,2.61-.15,6.88-.34,12.2-.34,13.58,0,38.25,1.3,53.7,9.8-1.03,4.03-2.54,15.06,4.56,33.15-6.93,3.52-13,8.25-18.06,14.07-8.7,10.01-10.85,19.03-13.13,31.64-.22,1.24-.41,2.49-.6,3.77-.07,.45-.13,.9-.2,1.35Z"
         id="path10"
         style="fill:#ffffff" />
      <path
         class="cls-1"
         d="M171.5,301.32c-57.37-31.11-112.88-53.49-130.53-60.36v-2.7l-.26-.46c-5.42-9.48-9.16-19.78-11.45-31.49-2.47-12.68-3.05-26-1.75-40.72,1.06-12.04,3.37-24.52,7.05-38.14l.12-.44-.08-.44c8.25-1.04,20.14-3.15,33.16-7.41,13.36-4.37,25.16-10.13,35.07-17.12,9.93-7,18.01-15.3,24.03-24.67,12.95,6.84,27.78,12.54,44.12,16.94l.52,.14,.52-.14c16.33-4.4,31.17-10.1,44.12-16.94,6.02,9.37,14.09,17.67,24.03,24.67,9.92,6.99,21.72,12.75,35.07,17.12,13.03,4.26,24.91,6.37,33.16,7.41l-.08,.44,.12,.44c3.68,13.62,5.98,26.1,7.05,38.14,1.3,14.73,.73,28.05-1.75,40.72-2.29,11.71-6.03,22.01-11.45,31.49l-.26,.46v2.7c-17.66,6.87-73.17,29.26-130.53,60.36Z"
         id="path12"
         style="fill:#ffffff" />
      <path
         class="cls-1"
         d="M171.5,337.49c-15.11-8.09-51.58-24.11-130.53-44.22v-36.45c22.91,9.13,75.97,31.3,129.56,61.02l.97,.54,.97-.54c53.58-29.71,106.65-51.89,129.56-61.02v36.45c-78.95,20.1-115.42,36.13-130.53,44.22Z"
         id="path14"
         style="fill:#ffffff" />
      <path
         class="cls-1"
         d="M287.56,435.21c-8.41,0-16.86-1.4-25.11-4.16-38.06-12.73-84.79-71.78-89.05-77.26,.74-.53,7.98-5.52,27.4-13.5,17.46-7.16,49.12-18.48,101.24-31.93v.99l.32,.49c.28,.44,28.32,44.93,28.6,112.27-3.71,2.57-20.35,13.09-43.39,13.09h0Zm-232.12,0c-23.1,0-39.68-10.52-43.39-13.09,.28-67.34,28.32-111.82,28.6-112.27l.32-.49v-.99c52.12,13.46,83.78,24.77,101.24,31.93,19.29,7.92,26.58,12.91,27.4,13.5-4.27,5.47-51,64.53-89.05,77.26-8.25,2.76-16.7,4.16-25.11,4.16Z"
         id="path16"
         style="fill:#ffffff" />
    </g>
  </g>
</svg>
