<?xml version="1.0" encoding="UTF-8" standalone="no"?>
<svg
   xmlns:dc="http://purl.org/dc/elements/1.1/"
   xmlns:cc="http://creativecommons.org/ns#"
   xmlns:rdf="http://www.w3.org/1999/02/22-rdf-syntax-ns#"
   xmlns:svg="http://www.w3.org/2000/svg"
   xmlns="http://www.w3.org/2000/svg"
   xmlns:sodipodi="http://sodipodi.sourceforge.net/DTD/sodipodi-0.dtd"
   xmlns:inkscape="http://www.inkscape.org/namespaces/inkscape"
   id="Ebene_2"
   viewBox="0 0 513.51 507.48"
   version="1.1"
   sodipodi:docname="backpack.svg"
   inkscape:version="1.0.2 (e86c870879, 2021-01-15, custom)">
  <metadata
     id="metadata76">
    <rdf:RDF>
      <cc:Work
         rdf:about="">
        <dc:format>image/svg+xml</dc:format>
        <dc:type
           rdf:resource="http://purl.org/dc/dcmitype/StillImage" />
      </cc:Work>
    </rdf:RDF>
  </metadata>
  <sodipodi:namedview
     pagecolor="#ffffff"
     bordercolor="#666666"
     borderopacity="1"
     objecttolerance="10"
     gridtolerance="10"
     guidetolerance="10"
     inkscape:pageopacity="0"
     inkscape:pageshadow="2"
     inkscape:window-width="820"
     inkscape:window-height="480"
     id="namedview74"
     showgrid="false"
     inkscape:zoom="1.9862851"
     inkscape:cx="256.755"
     inkscape:cy="253.74001"
     inkscape:window-x="0"
     inkscape:window-y="0"
     inkscape:window-maximized="0"
     inkscape:current-layer="Ebene_2" />
  <defs
     id="defs4">
    <style
       id="style2">.cls-1{fill:#1d1d1b;}</style>
  </defs>
  <g
     id="Ebene_2-2"
     style="fill:#ffffff">
    <g
       id="g70"
       style="fill:#ffffff">
      <g
         id="g20"
         style="fill:#ffffff">
        <g
           id="g10"
           style="fill:#ffffff">
          <path
             class="cls-1"
             d="M187.91,357.31v-34.21h19.57c1.05,0,1.9,.85,1.9,1.9v20.44c0,6.55-5.33,11.88-11.88,11.88h-9.59Z"
             id="path6"
             style="fill:#ffffff" />
          <path
             class="cls-1"
             d="M132.77,357.31c-6.55,0-11.88-5.33-11.88-11.88v-20.44c0-1.05,.85-1.9,1.9-1.9h19.57v34.21h-9.59Z"
             id="path8"
             style="fill:#ffffff" />
        </g>
        <g
           id="g18"
           style="fill:#ffffff">
          <path
             class="cls-1"
             d="M371.17,357.31v-34.21h19.57c1.05,0,1.9,.85,1.9,1.9v20.44c0,6.55-5.33,11.88-11.88,11.88h-9.59Z"
             id="path12"
             style="fill:#ffffff" />
          <path
             class="cls-1"
             d="M101.59,507.48c-34.61,0-62.77-28.13-62.82-62.73l12.71-134.31c.59-2.31,2.65-3.91,5.05-3.91,1.01,0,2,.3,2.86,.88,13.5,9.04,29.44,14.36,46.21,15.46-.09,.71-.14,1.41-.14,2.11v20.44c0,15.07,12.26,27.32,27.32,27.32h9.59v67.86c0,9.55,7.77,17.33,17.33,17.33h10.89c9.55,0,17.33-7.77,17.33-17.33v-67.86h9.59c15.07,0,27.32-12.26,27.32-27.32v-20.44c0-.63-.04-1.26-.11-1.9h64.11c-.07,.64-.11,1.27-.11,1.9v20.44c0,15.07,12.26,27.32,27.32,27.32h9.59v67.86c0,9.55,7.77,17.33,17.33,17.33h10.89c9.55,0,17.33-7.77,17.33-17.33v-67.86h9.59c15.07,0,27.32-12.26,27.32-27.32v-20.44c0-.7-.05-1.4-.14-2.11,16.77-1.1,32.7-6.42,46.21-15.46,.86-.58,1.85-.88,2.86-.88,2.39,0,4.45,1.6,5.05,3.91l12.71,134.31c-.05,34.6-28.21,62.73-62.82,62.73H101.59Z"
             id="path14"
             style="fill:#ffffff" />
          <path
             class="cls-1"
             d="M316.03,357.31c-6.55,0-11.88-5.33-11.88-11.88v-20.44c0-1.05,.85-1.9,1.9-1.9h19.57v34.21h-9.59Z"
             id="path16"
             style="fill:#ffffff" />
        </g>
      </g>
      <g
         id="g26"
         style="fill:#ffffff">
        <rect
           class="cls-1"
           x="187.91"
           y="287.46"
           width="137.71"
           height="20.19"
           id="rect22"
           style="fill:#ffffff" />
        <path
           class="cls-1"
           d="M371.17,307.65v-20.19h25.52c22.64,0,41.4-18.41,41.82-41.04v-.24s-7.81-152.46-7.81-152.46l-6.8-.96c-.26-.04-26.43-3.68-81.2-5.83l-23.33-.77c-19.81-.53-40.86-.8-62.6-.8s-42.8,.27-62.62,.8l-23.33,.77c-54.48,2.14-80.9,5.79-81.16,5.83l-6.82,.97-7.81,152.45v.24c.42,22.63,19.18,41.05,41.82,41.05h25.52v20.19h-25.52c-34.62,0-62.79-28.15-62.82-62.77l7.63-148.95c0-13.65,11.1-24.75,24.75-24.75h.14l.14-.02c.27-.04,27.28-3.82,83.39-6.03l1.57-.06,4.72-23.51c.91-4.5,1.91-9.05,2.95-13.7,3.09-13.87,14.84-27.86,34.12-27.86h86.65c19.28,0,31.03,13.99,34.12,27.86,1.05,4.7,2.06,9.28,2.95,13.7l4.73,23.51,1.57,.06c56.11,2.2,83.12,5.99,83.39,6.03l.14,.02h.14c13.65,0,24.75,11.1,24.75,24.75l7.63,148.95c-.03,34.62-28.2,62.77-62.82,62.77h-25.52ZM256.76,63.54c21.95,0,43.23,.27,63.24,.81l2.47,.07-2.83-15.35-.02-.07c-1.13-4.34-1.95-8.66-2.82-13.46-2.15-11.86-12.48-20.46-24.54-20.46h-71.01c-12.07,0-22.39,8.61-24.54,20.46-.87,4.8-1.68,9.13-2.82,13.46l-.03,.14-2.81,15.28,2.47-.07c20.01-.54,41.29-.81,63.24-.81Z"
           id="path24"
           style="fill:#ffffff" />
      </g>
      <g
         id="g34"
         style="fill:#ffffff">
        <rect
           class="cls-1"
           x="157.81"
           y="391.62"
           width="14.66"
           height="8.99"
           id="rect28"
           style="fill:#ffffff" />
        <path
           class="cls-1"
           d="M159.69,442.5c-1.04,0-1.88-.84-1.88-1.88v-26.01h14.66v26.01c0,1.04-.84,1.88-1.88,1.88h-10.89Z"
           id="path30"
           style="fill:#ffffff" />
        <path
           class="cls-1"
           d="M157.81,377.62v-115.02c0-1.04,.84-1.88,1.88-1.88h10.89c1.04,0,1.88,.84,1.88,1.88v115.02h-14.66Z"
           id="path32"
           style="fill:#ffffff" />
      </g>
      <g
         id="g42"
         style="fill:#ffffff">
        <rect
           class="cls-1"
           x="341.07"
           y="391.62"
           width="14.66"
           height="8.99"
           id="rect36"
           style="fill:#ffffff" />
        <path
           class="cls-1"
           d="M341.07,377.62v-115.02c0-1.04,.84-1.88,1.88-1.88h10.89c1.04,0,1.88,.84,1.88,1.88v115.02h-14.66Z"
           id="path38"
           style="fill:#ffffff" />
        <path
           class="cls-1"
           d="M342.95,442.5c-1.04,0-1.88-.84-1.88-1.88v-26.01h14.66v26.01c0,1.04-.84,1.88-1.88,1.88h-10.89Z"
           id="path40"
           style="fill:#ffffff" />
      </g>
      <g
         id="g52"
         style="fill:#ffffff">
        <path
           class="cls-1"
           d="M201.54,176.16c11.19,3.68,22.98,6,30.79,6.77v-5.4c0-7.58,6.17-13.75,13.75-13.75h21.38c7.58,0,13.75,6.17,13.75,13.75v5.4c7.81-.78,19.6-3.09,30.79-6.77,17.28-5.68,21.68-10.84,22.05-12.67-.08-3.04-.82-5.91-2.08-8.48-3.71-6.91-11.93-11.74-21.46-11.74h-107.47c-9.52,0-17.74,4.82-21.45,11.72-1.26,2.58-2,5.46-2.08,8.5,.37,1.83,4.77,6.99,22.05,12.67Z"
           id="path44"
           style="fill:#ffffff" />
        <rect
           class="cls-1"
           x="244.33"
           y="175.79"
           width="24.88"
           height="24.88"
           rx="1.75"
           ry="1.75"
           id="rect46"
           style="fill:#ffffff" />
        <path
           class="cls-1"
           d="M371.17,273.46v-10.86c0-9.55-7.77-17.33-17.33-17.33h-10.89c-9.55,0-17.33,7.77-17.33,17.33v10.86H187.91v-10.86c0-9.55-7.77-17.33-17.33-17.33h-10.89c-9.55,0-17.33,7.77-17.33,17.33v10.86h-25.52c-14.95,0-27.41-12.14-27.81-27.07l7.19-140.33c10.07-1.14,34.7-3.55,75.1-5.14l23.24-.77c19.66-.53,40.59-.8,62.2-.8s42.53,.27,62.18,.8l23.24,.77c40.42,1.59,65.05,4,75.12,5.14l7.19,140.34c-.4,14.93-12.86,27.07-27.81,27.07h-25.52ZM200.26,131.27c-12.84,0-24.57,7.58-29.88,19.31-1.93,3.98-2.92,8.26-2.92,12.67,0,.1,0,.21,.01,.31,0,0-.01,.38-.01,.51v26.02c0,10.04,3.91,19.47,11,26.56l13.04,13.04c7.1,7.1,16.53,11,26.56,11h77.39c10.03,0,19.47-3.91,26.56-11l13.04-13.04c7.1-7.09,11-16.53,11-26.56v-26.02c0-.13-.01-.49-.01-.49,0-.14,.01-.23,.01-.33,0-4.4-.99-8.68-2.93-12.7-5.29-11.69-17.02-19.28-29.87-19.28h-113Z"
           id="path48"
           style="fill:#ffffff" />
        <path
           class="cls-1"
           d="M218.07,226.7c-6.29,0-12.21-2.45-16.67-6.9l-13.04-13.04c-4.45-4.45-6.9-10.37-6.9-16.67v-9.37c14.06,7.83,35.79,12.52,48.86,14.01v4.19c0,8.68,7.07,15.75,15.75,15.75h21.38c8.68,0,15.75-7.06,15.75-15.75v-4.19c13.08-1.49,34.81-6.19,48.86-14.01v9.37c0,6.29-2.45,12.21-6.9,16.67l-13.04,13.04c-4.45,4.45-10.37,6.9-16.67,6.9h-77.39Z"
           id="path50"
           style="fill:#ffffff" />
      </g>
      <g
         id="g60"
         style="fill:#ffffff">
        <polygon
           class="cls-1"
           points="6.1 330.38 6.08 320.95 36.38 323.52 35.45 333.31 6.1 330.38"
           id="polygon54"
           style="fill:#ffffff" />
        <path
           class="cls-1"
           d="M6.05,306.89l-.1-46.45c-.07-3.43,2.05-6.45,5.26-7.55l21.52-7.36c.83-.28,1.69-.43,2.54-.43,2.17,0,4.26,.94,5.75,2.57,1.48,1.63,2.18,3.74,1.97,5.95l-5.3,55.96-31.65-2.69Z"
           id="path56"
           style="fill:#ffffff" />
        <path
           class="cls-1"
           d="M17.04,451.52c-.48,0-.96-.04-1.44-.13l-9.25-1.72c-3.58-.67-6.25-3.78-6.35-7.42l6-97.8,28.13,2.81-9.36,97.22c-.38,4.02-3.7,7.05-7.73,7.05h0Z"
           id="path58"
           style="fill:#ffffff" />
      </g>
      <g
         id="g68"
         style="fill:#ffffff">
        <polygon
           class="cls-1"
           points="477.13 323.52 507.43 320.95 507.41 330.38 478.06 333.31 477.13 323.52"
           id="polygon62"
           style="fill:#ffffff" />
        <path
           class="cls-1"
           d="M470.52,253.63c-.21-2.21,.49-4.32,1.97-5.95,1.49-1.63,3.58-2.57,5.75-2.57,.85,0,1.71,.14,2.54,.43l21.52,7.36c3.21,1.1,5.33,4.12,5.26,7.52l-.1,46.48-31.65,2.69-5.3-55.96Z"
           id="path64"
           style="fill:#ffffff" />
        <path
           class="cls-1"
           d="M496.47,451.52c-4.03,0-7.35-3.03-7.73-7.05l-9.36-97.22,28.13-2.81,6,97.8c-.11,3.64-2.77,6.75-6.35,7.42l-9.25,1.72c-.48,.09-.96,.13-1.44,.13Z"
           id="path66"
           style="fill:#ffffff" />
      </g>
    </g>
  </g>
</svg>
