<?xml version="1.0" encoding="UTF-8" standalone="no"?>
<svg
   xmlns:dc="http://purl.org/dc/elements/1.1/"
   xmlns:cc="http://creativecommons.org/ns#"
   xmlns:rdf="http://www.w3.org/1999/02/22-rdf-syntax-ns#"
   xmlns:svg="http://www.w3.org/2000/svg"
   xmlns="http://www.w3.org/2000/svg"
   xmlns:sodipodi="http://sodipodi.sourceforge.net/DTD/sodipodi-0.dtd"
   xmlns:inkscape="http://www.inkscape.org/namespaces/inkscape"
   id="Ebene_2"
   viewBox="0 0 440 196.65"
   version="1.1"
   sodipodi:docname="coins.svg"
   inkscape:version="1.0.2 (e86c870879, 2021-01-15, custom)">
  <metadata
     id="metadata20">
    <rdf:RDF>
      <cc:Work
         rdf:about="">
        <dc:format>image/svg+xml</dc:format>
        <dc:type
           rdf:resource="http://purl.org/dc/dcmitype/StillImage" />
      </cc:Work>
    </rdf:RDF>
  </metadata>
  <sodipodi:namedview
     pagecolor="#ffffff"
     bordercolor="#666666"
     borderopacity="1"
     objecttolerance="10"
     gridtolerance="10"
     guidetolerance="10"
     inkscape:pageopacity="0"
     inkscape:pageshadow="2"
     inkscape:window-width="869"
     inkscape:window-height="480"
     id="namedview18"
     showgrid="false"
     inkscape:zoom="3.1977273"
     inkscape:cx="220"
     inkscape:cy="98.324997"
     inkscape:window-x="0"
     inkscape:window-y="0"
     inkscape:window-maximized="0"
     inkscape:current-layer="Ebene_2" />
  <defs
     id="defs4">
    <style
       id="style2">.cls-1{fill:#1d1d1b;}</style>
  </defs>
  <g
     id="Ebene_6"
     style="fill:#ffffff">
    <g
       id="g14"
       style="fill:#ffffff">
      <ellipse
         class="cls-1"
         cx="119.23"
         cy="70.96"
         rx="129.46"
         ry="49.86"
         transform="translate(-18.82 57.04) rotate(-25)"
         id="ellipse6"
         style="fill:#ffffff" />
      <path
         class="cls-1"
         d="M229.08,75.78c-19.57,20.31-48.6,40-81.74,55.46-33.15,15.46-66.9,25.04-95.03,26.97-14.16,.97-26.47-.03-36.62-2.96,0,0,0,0,0,0l11.72,25.14c11.64,24.96,73.6,20.7,138.4-9.52,64.8-30.22,107.9-74.94,96.26-99.9l-11.72-25.14s0,0,0,0c-4.28,9.66-11.42,19.74-21.27,29.96Z"
         id="path8"
         style="fill:#ffffff" />
      <path
         class="cls-1"
         d="M440,119.04c-7.96,6.95-18.69,13.06-31.93,18.16-26.31,10.14-60.95,15.72-97.52,15.72-26.93,0-52.8-3.03-75.08-8.67-11.32,9.23-24.43,18.12-38.78,26.29,21.92,15.55,64.68,26.11,113.86,26.11,71.5,0,129.46-22.32,129.46-49.86v-27.74s0,0,0,0Z"
         id="path10"
         style="fill:#ffffff" />
      <path
         class="cls-1"
         d="M310.54,36.55c-16.78,0-32.81,1.23-47.52,3.47l.31,.53,.16,.63,11.16,23.94c3.14,6.73,5.55,17.93-.79,33.1-4.07,9.73-11.22,19.95-21.26,30.37-.65,.68-1.32,1.36-2,2.03,17.92,3.61,38.31,5.66,59.94,5.66,71.5,0,129.46-22.32,129.46-49.86s-57.96-49.86-129.46-49.86Z"
         id="path12"
         style="fill:#ffffff" />
    </g>
  </g>
</svg>
