<?xml version="1.0" encoding="UTF-8" standalone="no"?>
<svg
   xmlns:dc="http://purl.org/dc/elements/1.1/"
   xmlns:cc="http://creativecommons.org/ns#"
   xmlns:rdf="http://www.w3.org/1999/02/22-rdf-syntax-ns#"
   xmlns:svg="http://www.w3.org/2000/svg"
   xmlns="http://www.w3.org/2000/svg"
   xmlns:sodipodi="http://sodipodi.sourceforge.net/DTD/sodipodi-0.dtd"
   xmlns:inkscape="http://www.inkscape.org/namespaces/inkscape"
   id="Ebene_2"
   viewBox="0 0 251.42 429.25"
   version="1.1"
   sodipodi:docname="consumable.svg"
   inkscape:version="1.0.2 (e86c870879, 2021-01-15, custom)">
  <metadata
     id="metadata16">
    <rdf:RDF>
      <cc:Work
         rdf:about="">
        <dc:format>image/svg+xml</dc:format>
        <dc:type
           rdf:resource="http://purl.org/dc/dcmitype/StillImage" />
      </cc:Work>
    </rdf:RDF>
  </metadata>
  <sodipodi:namedview
     pagecolor="#ffffff"
     bordercolor="#666666"
     borderopacity="1"
     objecttolerance="10"
     gridtolerance="10"
     guidetolerance="10"
     inkscape:pageopacity="0"
     inkscape:pageshadow="2"
     inkscape:window-width="820"
     inkscape:window-height="480"
     id="namedview14"
     showgrid="false"
     inkscape:zoom="2.3482819"
     inkscape:cx="125.71"
     inkscape:cy="214.625"
     inkscape:window-x="0"
     inkscape:window-y="0"
     inkscape:window-maximized="0"
     inkscape:current-layer="Ebene_2" />
  <defs
     id="defs4">
    <style
       id="style2">.cls-1{fill:#1d1d1b;}</style>
  </defs>
  <g
     id="Ebene_2-2"
     style="fill:#ffffff">
    <g
       id="g10"
       style="fill:#ffffff">
      <ellipse
         class="cls-1"
         cx="125.71"
         cy="8.31"
         rx="33.26"
         ry="8.31"
         id="ellipse6"
         style="fill:#ffffff" />
      <path
         class="cls-1"
         d="M157.11,181.79V56.83c8.01-2.01,12.94-4.77,12.94-7.83V26.83c0-2.2-2.56-4.24-6.97-5.97-2.09,10.75-31.33,11.32-37.37,11.32s-35.28-.57-37.37-11.32c-4.41,1.72-6.97,3.77-6.97,5.97v22.17c0,3.07,4.92,5.85,12.99,7.86v124.93C40.14,195.74,0,244.96,0,303.54c0,69.43,56.28,125.71,125.71,125.71s125.71-56.28,125.71-125.71c0-58.58-40.09-107.79-94.31-121.75Zm-92.03,71.58c16.11-4.03,37.64-6.25,60.62-6.25s44.51,2.22,60.62,6.25c15.9,3.97,19.75,7.94,20.53,9.01-.78,1.07-4.63,5.03-20.53,9.01-16.11,4.03-37.64,6.25-60.62,6.25s-44.51-2.22-60.62-6.25c-15.9-3.97-19.75-7.94-20.53-9.01,.78-1.07,4.63-5.03,20.53-9.01Zm60.62,145.37c-52.57,0-95.19-42.62-95.19-95.19,0-10.13,1.58-19.89,4.52-29.05,9.36,14.05,51.34,20.52,90.68,20.52s81.31-6.47,90.68-20.52c2.93,9.16,4.52,18.92,4.52,29.05,0,52.57-42.62,95.19-95.19,95.19Z"
         id="path8"
         style="fill:#ffffff" />
    </g>
  </g>
</svg>
