<?xml version="1.0" encoding="UTF-8" standalone="no"?>
<svg
   xmlns:dc="http://purl.org/dc/elements/1.1/"
   xmlns:cc="http://creativecommons.org/ns#"
   xmlns:rdf="http://www.w3.org/1999/02/22-rdf-syntax-ns#"
   xmlns:svg="http://www.w3.org/2000/svg"
   xmlns="http://www.w3.org/2000/svg"
   xmlns:sodipodi="http://sodipodi.sourceforge.net/DTD/sodipodi-0.dtd"
   xmlns:inkscape="http://www.inkscape.org/namespaces/inkscape"
   id="Ebene_2"
   viewBox="0 0 552.33 508.83"
   version="1.1"
   sodipodi:docname="gear.svg"
   inkscape:version="1.0.2 (e86c870879, 2021-01-15, custom)">
  <metadata
     id="metadata38">
    <rdf:RDF>
      <cc:Work
         rdf:about="">
        <dc:format>image/svg+xml</dc:format>
        <dc:type
           rdf:resource="http://purl.org/dc/dcmitype/StillImage" />
      </cc:Work>
    </rdf:RDF>
  </metadata>
  <sodipodi:namedview
     pagecolor="#ffffff"
     bordercolor="#666666"
     borderopacity="1"
     objecttolerance="10"
     gridtolerance="10"
     guidetolerance="10"
     inkscape:pageopacity="0"
     inkscape:pageshadow="2"
     inkscape:window-width="820"
     inkscape:window-height="480"
     id="namedview36"
     showgrid="false"
     inkscape:zoom="1.9810153"
     inkscape:cx="276.16501"
     inkscape:cy="254.41499"
     inkscape:window-x="0"
     inkscape:window-y="0"
     inkscape:window-maximized="0"
     inkscape:current-layer="Ebene_2" />
  <defs
     id="defs4">
    <style
       id="style2">.cls-1{fill:#1d1d1b;}</style>
  </defs>
  <g
     id="Ebene_2-2"
     style="fill:#ffffff">
    <g
       id="g32"
       style="fill:#ffffff">
      <g
         id="g14"
         style="fill:#ffffff">
        <path
           class="cls-1"
           d="M221.97,299.34L383.76,67.9c1.1-1.57,2.72-2.71,4.57-3.2l70.94-19.01,47.36,47.36-19.01,70.94c-.5,1.85-1.63,3.47-3.2,4.57l-231.44,161.78-31.01-31.01Z"
           id="path6"
           style="fill:#ffffff" />
        <path
           class="cls-1"
           d="M530.42,175.47l20.81-77.66c2.98-11.13-.2-23-8.35-31.15l-57.2-57.2c-8.15-8.15-20.02-11.33-31.15-8.35l-77.66,20.81c-11.92,3.19-22.34,10.49-29.41,20.61l-170.46,243.86c-7.29,10.43-6.04,24.58,2.95,33.57l52.44,52.44c9,9,23.15,10.24,33.57,2.95l243.86-170.46c10.12-7.07,17.42-17.49,20.61-29.41Zm-35.66,7.89l-243.83,170.44-52.39-52.39L368.97,57.57c3.52-5.04,8.74-8.7,14.68-10.29l77.66-20.81c2.06-.55,4.28,.04,5.78,1.55l57.2,57.2c1.51,1.51,2.1,3.72,1.55,5.78l-20.81,77.66c-1.59,5.94-5.25,11.16-10.29,14.68Z"
           id="path8"
           style="fill:#ffffff" />
        <path
           class="cls-1"
           d="M234.32,416.76c3.56-6.17,7.23-12.53,8.92-19.99-8.96-.36-17.76-3.99-24.51-10.74l-52.44-52.44c-6.46-6.46-10.06-14.8-10.67-23.36-5.4,3.58-10.77,4.9-16.92,4.21-9.65-1.08-19.46-1.83-28.94-2.57-2.42-.19-4.85-.37-7.27-.57-10.62-.84-23.14-1.27-35.53,1.94-12.21,3.16-21.39,10.03-27.29,20.42-6.72,11.82-12.38,24.79-17.32,39.68-1.45,4.37-2.52,8.78-3.16,13.1-.67,4.49-.24,8.67,1.21,12.36l-.32,.32c-1.53,1.53-3.12,3.05-4.66,4.52-3.51,3.36-7.13,6.83-10.33,10.67-7.02,8.42-6.76,17.84,.73,26.54,.64,.75,1.33,1.51,2.07,2.26,.64,.64,1.34,1.28,2.1,1.87,8.98,7,17.33,8.74,25.31,5.25-4.02,7.9-3.19,16.1,2.5,23.88,.85,1.16,1.78,2.24,2.77,3.23,4.72,4.72,10.9,7.41,17.48,7.52,4.59,.08,8.97-1.16,12.72-3.49-.04,1.35,.06,2.73,.31,4.14,.88,4.88,3.52,9.55,7.15,13.18,3.33,3.33,7.5,5.79,11.89,6.75,10.16,2.21,18.52-1.44,24.16-10.55,.03-.05,.06-.1,.1-.16,.46,2.62,1.79,5.09,3.98,7.27,.7,.7,1.49,1.38,2.37,2.02,8.4,6.15,19.03,6.27,27.17,1.01,0,0,0,0,0,0l6.47-3.63,13.63-12.17c3.32-2.97,6.61-5.88,9.86-8.77,7.39-6.57,14.38-12.77,21.41-19.18,14.69-13.39,24.83-25.77,31.9-38.95,.99-1.85,2.04-3.67,3.15-5.59Z"
           id="path10"
           style="fill:#ffffff" />
        <path
           class="cls-1"
           d="M530.42,175.47l20.81-77.66c2.98-11.13-.2-23-8.35-31.15l-57.2-57.2c-8.15-8.15-20.02-11.33-31.15-8.35l-77.66,20.81c-11.92,3.19-22.34,10.49-29.41,20.61l-170.46,243.86c-7.29,10.43-6.04,24.58,2.95,33.57l52.44,52.44c9,9,23.15,10.24,33.57,2.95l243.86-170.46c10.12-7.07,17.42-17.49,20.61-29.41Zm-35.66,7.89l-243.83,170.44-52.39-52.39L368.97,57.57c3.52-5.04,8.74-8.7,14.68-10.29l77.66-20.81c2.06-.55,4.28,.04,5.78,1.55l57.2,57.2c1.51,1.51,2.1,3.72,1.55,5.78l-20.81,77.66c-1.59,5.94-5.25,11.16-10.29,14.68Z"
           id="path12"
           style="fill:#ffffff" />
      </g>
      <polygon
         class="cls-1"
         points="500.18 233.28 448.73 269.25 460.41 280.93 513.61 246.71 500.18 233.28"
         id="polygon16"
         style="fill:#ffffff" />
      <polygon
         class="cls-1"
         points="512.06 264.25 477.74 286.36 507.46 316.08 541.78 293.97 512.06 264.25"
         id="polygon18"
         style="fill:#ffffff" />
      <polygon
         class="cls-1"
         points="373.86 360.73 339.54 382.84 369.26 412.56 403.58 390.45 373.86 360.73"
         id="polygon20"
         style="fill:#ffffff" />
      <polygon
         class="cls-1"
         points="359.79 331.16 308.33 367.13 320.01 378.81 373.21 344.58 359.79 331.16"
         id="polygon22"
         style="fill:#ffffff" />
      <polygon
         class="cls-1"
         points="319.6 52.7 283.63 104.15 271.95 92.47 306.17 39.27 319.6 52.7"
         id="polygon24"
         style="fill:#ffffff" />
      <polygon
         class="cls-1"
         points="288.63 40.82 266.52 75.14 236.8 45.43 258.91 11.1 288.63 40.82"
         id="polygon26"
         style="fill:#ffffff" />
      <polygon
         class="cls-1"
         points="192.15 179.02 170.04 213.34 140.32 183.62 162.44 149.3 192.15 179.02"
         id="polygon28"
         style="fill:#ffffff" />
      <polygon
         class="cls-1"
         points="221.72 193.1 185.76 244.55 174.08 232.87 208.3 179.67 221.72 193.1"
         id="polygon30"
         style="fill:#ffffff" />
    </g>
  </g>
</svg>
