<?xml version="1.0" encoding="UTF-8" standalone="no"?>
<svg
   xmlns:dc="http://purl.org/dc/elements/1.1/"
   xmlns:cc="http://creativecommons.org/ns#"
   xmlns:rdf="http://www.w3.org/1999/02/22-rdf-syntax-ns#"
   xmlns:svg="http://www.w3.org/2000/svg"
   xmlns="http://www.w3.org/2000/svg"
   xmlns:sodipodi="http://sodipodi.sourceforge.net/DTD/sodipodi-0.dtd"
   xmlns:inkscape="http://www.inkscape.org/namespaces/inkscape"
   id="Ebene_2"
   viewBox="0 0 440 408.38"
   version="1.1"
   sodipodi:docname="hand.svg"
   inkscape:version="1.0.2 (e86c870879, 2021-01-15, custom)">
  <metadata
     id="metadata12">
    <rdf:RDF>
      <cc:Work
         rdf:about="">
        <dc:format>image/svg+xml</dc:format>
        <dc:type
           rdf:resource="http://purl.org/dc/dcmitype/StillImage" />
      </cc:Work>
    </rdf:RDF>
  </metadata>
  <sodipodi:namedview
     pagecolor="#ffffff"
     bordercolor="#666666"
     borderopacity="1"
     objecttolerance="10"
     gridtolerance="10"
     guidetolerance="10"
     inkscape:pageopacity="0"
     inkscape:pageshadow="2"
     inkscape:window-width="820"
     inkscape:window-height="480"
     id="namedview10"
     showgrid="false"
     inkscape:zoom="2.4682893"
     inkscape:cx="220"
     inkscape:cy="204.19"
     inkscape:window-x="0"
     inkscape:window-y="0"
     inkscape:window-maximized="0"
     inkscape:current-layer="Ebene_2" />
  <defs
     id="defs4">
    <style
       id="style2">.cls-1{fill:#1d1d1b;}</style>
  </defs>
  <g
     id="Ebene_6"
     style="fill:#ffffff">
    <path
       class="cls-1"
       d="M114.25,408.36c26.44,.74,64.82-20.59,92.4-36.08l.97-.54c32.47-18.22,64.27-37.24,95.01-55.64,31.52-18.86,64.1-38.35,97.3-56.91,5.78-3.23,10.08-8.67,11.81-14.92,1.62-5.87,.81-12.06-2.28-17.42-4.98-8.65-12.16-9.94-16-9.94-5.23,0-9.99,2.23-13.97,4.41-9.56,5.25-58.58,30.8-84.09,43.7,29.22-22.51,43.78-35.07,50.98-41.83,17.41-16.36,34.84-33.23,51.69-49.54,10.28-9.95,20.91-20.24,31.41-30.29,16.92-16.2,9.69-28.84,3.88-34.94-5.72-6-11.69-7.26-15.7-7.26-7.93,0-14.46,4.7-19.27,8.79-33.5,28.51-96.49,78.48-107.63,86.42-9.36,6.67-20.63,12.46-26.01,14.72-.29-1.74,.56-3.99,4.59-7.97,15.99-15.81,129.72-134.24,132.27-137.73,8.06-11.06,7.21-23.21-2.27-32.52-6.05-5.94-12.27-7.18-16.43-7.18-6.78,0-13.5,3.13-19.98,9.29-36.96,35.2-121.49,111.23-130.2,117.52-6.52,4.71-19.46,9.95-25.84,12,9.7-11.14,83.54-96.08,100.94-117.2,14.84-18,9.99-33.01,.5-41.06-4.8-4.07-10.44-6.23-16.29-6.23s-14.63,2.15-24.23,12.38c-12.37,13.19-24.9,26.63-37.01,39.64-30.17,32.38-61.37,65.86-92.67,98.13-9.9,10.21-19.19,23.08-36.57,33.21-3.77,2.2-6.3,2.66-7.75,2.66-4.57,0-7.28-5.94-8.75-10.92-5.28-17.88-4.74-37.56,1.63-60.15,7.01-24.86,8.17-53.02-10.3-71.91-5.41-5.54-9.48-9.41-17.02-9.41-1.68,0-3.3,.19-4.8,.56-7.07,1.75-11.82,8.62-15.39,22.27-1.96,7.48-3.44,15.1-4.88,22.48-2.61,13.42-4.08,26.1-9.11,37.42-13.99,31.55-17.73,62.44-11.44,94.45,5.58,28.34-2.62,53.05-6.81,66.33-17.34,37.78-.21,67.87,28.48,96.55,28.68,28.68,52.38,33.93,78.81,34.67Z"
       id="path6"
       style="fill:#ffffff" />
  </g>
</svg>
