<?xml version="1.0" encoding="UTF-8" standalone="no"?>
<svg
   xmlns:dc="http://purl.org/dc/elements/1.1/"
   xmlns:cc="http://creativecommons.org/ns#"
   xmlns:rdf="http://www.w3.org/1999/02/22-rdf-syntax-ns#"
   xmlns:svg="http://www.w3.org/2000/svg"
   xmlns="http://www.w3.org/2000/svg"
   xmlns:sodipodi="http://sodipodi.sourceforge.net/DTD/sodipodi-0.dtd"
   xmlns:inkscape="http://www.inkscape.org/namespaces/inkscape"
   id="Ebene_2"
   viewBox="0 0 318.92 612.84"
   version="1.1"
   sodipodi:docname="icon-logo.svg"
   inkscape:version="1.0.2 (e86c870879, 2021-01-15, custom)">
  <metadata
     id="metadata62">
    <rdf:RDF>
      <cc:Work
         rdf:about="">
        <dc:format>image/svg+xml</dc:format>
        <dc:type
           rdf:resource="http://purl.org/dc/dcmitype/StillImage" />
      </cc:Work>
    </rdf:RDF>
  </metadata>
  <defs
     id="defs60" />
  <sodipodi:namedview
     pagecolor="#ffffff"
     bordercolor="#666666"
     borderopacity="1"
     objecttolerance="10"
     gridtolerance="10"
     guidetolerance="10"
     inkscape:pageopacity="0"
     inkscape:pageshadow="2"
     inkscape:window-width="820"
     inkscape:window-height="480"
     id="namedview58"
     showgrid="false"
     inkscape:zoom="1.6448012"
     inkscape:cx="159.46001"
     inkscape:cy="306.42001"
     inkscape:window-x="0"
     inkscape:window-y="0"
     inkscape:window-maximized="0"
     inkscape:current-layer="Ebene_2" />
  <g
     id="Ebene_1-2"
     style="fill:#ffffff">
    <g
       id="g54"
       style="fill:#ffffff">
      <g
         id="g22"
         style="fill:#ffffff">
        <path
           d="M148.64,313.42h0c.25,.32,.51,.63,.78,.94-.27-.31-.52-.63-.78-.94Z"
           id="path2"
           style="fill:#ffffff" />
        <path
           d="M152.57,317.38c-1.13-.94-2.2-1.92-3.15-3.01,.95,1.09,2.02,2.08,3.15,3.01Z"
           id="path4"
           style="fill:#ffffff" />
        <path
           d="M222.6,324.55c-.07-.37-.16-.72-.27-1.07,.1,.34,.19,.7,.27,1.07,.11,.58,.26,1.15,.41,1.72-.16-.57-.3-1.14-.41-1.72Z"
           id="path6"
           style="fill:#ffffff" />
        <path
           d="M155.16,304.9c.55,.93,1.13,1.83,1.74,2.68-.61-.85-1.18-1.75-1.74-2.68Z"
           id="path8"
           style="fill:#ffffff" />
        <path
           d="M213.94,356.46c-.94,.62-1.95,1.14-2.98,1.62h0c1.03-.48,2.04-1,2.98-1.62,5.29-3.49,8.93-8.26,9.3-14.98,.03-.61,.16-1.22,.32-1.82-.16,.6-.29,1.21-.32,1.82-.38,6.72-4.01,11.49-9.3,14.98Z"
           id="path10"
           style="fill:#ffffff" />
        <path
           d="M178.49,319.05c.23,.45,.48,.86,.75,1.22-.27-.36-.52-.77-.75-1.22-.11-.23-.32-.43-.59-.62,.27,.18,.48,.39,.59,.62Z"
           id="path12"
           style="fill:#ffffff" />
        <path
           d="M185.08,334.51h0c-1.75-.34-3.5-.7-5.24-1.09-2.3-.52-4.59-1.07-6.88-1.66,2.28,.59,4.58,1.13,6.88,1.66,1.74,.4,3.49,.75,5.24,1.09Z"
           id="path14"
           style="fill:#ffffff" />
        <path
           d="M160.64,325.73c-.41-.68-.73-1.45-.96-2.31-.04-.14-.11-.28-.2-.41,.09,.13,.16,.27,.2,.41,.23,.86,.56,1.63,.96,2.31Z"
           id="path16"
           style="fill:#ffffff" />
        <path
           d="M241.82,306.48c-.82-1.68-2.53-2.75-4.4-2.75h-31.5l.41,4.4c5.04,1.75,9.63,3.75,13.54,5.55,4.08,1.88,6.72,5.3,7.64,9.9,.17,.84,.43,1.75,.71,2.71,.38,1.29,.81,2.75,1.06,4.31,.39,2.41,.2,4.8,0,6.61-.14,1.16-.42,2.16-.67,3.04-.17,.59-.34,1.2-.36,1.52-.43,7.75-4.32,14.1-11.54,18.87-1.71,1.13-3.49,1.96-5.25,2.71l.65,6.98c.16,1.68,1.11,3.18,2.56,4.04l24.02,14.19c1.6,.95,2.58,2.67,2.58,4.53s-.98,3.58-2.58,4.53l-24,14.18c-1.45,.86-2.41,2.36-2.56,4.05l-15.19,165.6-15.19-165.61c-.15-1.68-1.11-3.19-2.56-4.05l-24-14.18c-1.6-.95-2.58-2.67-2.58-4.53s.98-3.58,2.58-4.53l24.02-14.19c.81-.48,1.46-1.16,1.91-1.96-.32-3.27,.13-6.55,1.36-9.71l2.15-23.18c-1.94-.38-3.92-.77-5.89-1.22-4.17-.95-9.09-2.13-14.07-3.7-4.64-1.46-7.96-4.56-9.46-8.77-.02-.02-.05-.04-.07-.06-.88-.74-1.83-1.47-2.82-2.23-2.05-1.57-4.14-3.21-6.03-5.23l-35.73,73.3c-.47,.96-.61,2.06-.4,3.11l42.94,214.2c.46,2.29,2.47,3.93,4.8,3.93h78.1c2.33,0,4.34-1.65,4.8-3.93l42.94-214.2c.21-1.05,.07-2.14-.4-3.11l-41.49-85.12Z"
           id="path18"
           style="fill:#ffffff" />
        <path
           d="M164.95,310.29c.94,.52,1.97,.89,3.02,1.21-1.05-.32-2.08-.69-3.02-1.21-.46-.26-.9-.52-1.32-.8,.42,.28,.86,.54,1.32,.8Z"
           id="path20"
           style="fill:#ffffff" />
      </g>
      <g
         id="g52"
         style="fill:#ffffff">
        <path
           d="M194.17,386.54c-1.67-2.12-3.47-4.14-4.97-6.35-5.41-7.97-3.6-16.62,2.91-23.02,2.08-2.05,4.63-3.61,6.92-5.44,1.35-1.08,2.74-2.14,3.89-3.4,2.28-2.48,2.4-5.44-.08-7.69-1.77-1.61-4.03-3.06-6.31-3.66-5.49-1.46-11.15-2.3-16.7-3.56-4.59-1.05-9.18-2.18-13.67-3.59-3.12-.98-5.56-2.98-6.48-6.41-.15-.57-.82-1.05-1.33-1.48-2.99-2.52-6.4-4.66-8.92-7.58-6.69-7.72-9.26-17.01-8.08-27.03,1.36-11.52,5.19-22.22,13.14-31.02,7.58-8.4,17.16-10.72,27.84-8.08,4.64,1.15,9.08,3.31,13.41,5.42,7.76,3.77,15.97,4.83,24.26,3.51,7.21-1.15,12.09-6.14,15.43-12.48,1.26-2.39,.88-3.21-1.16-4.91-6.28-5.26-7.03-11.84-1.89-18.29,1.89-2.37,4.23-4.39,6.33-6.61,5.27-5.56,10.63-11.04,15.7-16.77,1.63-1.84,2.78-4.26,3.56-6.61,.51-1.56,.2-3.53-.18-5.21-.4-1.76-2.02-2.64-3.78-2.13-1.74,.5-3.44,1.3-5.03,2.19-3.05,1.7-6.18,3.04-9.74,3.25-2.87,.17-5.52-.38-7.92-1.94-3.66-2.38-7.32-2.33-11.35-.76-9.88,3.87-19.78,3.9-29.52-.68-1.82-.86-3.62-1.79-5.5-2.51-3.4-1.3-6.41-.34-8.14,2.87-2.06,3.82-4.54,7.16-8.04,9.8-.82,.62-1.22,2.05-1.42,3.18-.35,1.98-.26,4.03-.59,6.02-1.15,6.83-5.71,9.96-12.44,8.33-2.78-.67-5.02-.42-7.46,1.2-5.64,3.74-11.73,3.31-17.71,.89-2.59-1.05-5.12-2.44-7.39-4.08-3.08-2.23-6.36-3.65-10.13-4.03-2.61-.27-4.92-1.32-6.75-3.19-7.35-7.47-16.4-11.93-26.22-15.13-2.89-.94-5.71-2.16-8.46-3.46-7.7-3.63-11.84-9.81-12.67-18.24-.12-1.2-.29-2.4-.42-3.61-.56-5.26-2.99-9.44-7.07-12.81-3.82-3.16-7.52-6.45-11.17-9.8-6.47-5.94-9.41-13.56-10.02-22.13-.36-5.05-1.58-9.75-4.22-14.08-4.42-7.25-5.84-15.28-5.43-23.57,.3-6.17,3.3-11.51,7.06-16.26,6.56-8.3,15.6-12.52,25.67-14.86,1.79-.42,3.62-.71,5.44-1.02,1.06-.18,1.61-.69,1.69-1.81,.16-2.18,1.19-3.96,2.79-5.39,4.1-3.66,8.54-6.5,14.39-6.05,.66,.05,1.46-.31,2.02-.72,.97-.72,1.89-1.54,2.66-2.46,6.29-7.49,14.61-10.71,24.07-11.06,8.29-.31,16.61-.06,24.76,2.47,1.71-2.51,4.41-3.52,7.18-4.38,9.23-2.86,18.67-3.47,28.22-2.31,4.17,.51,8.34,1.12,12.46,1.9,6.04,1.14,11.43,3.76,16.37,7.44,1.86,1.39,4.08,2.31,6.19,3.36,.59,.29,1.34,.36,2.02,.38,1.82,.04,2.3-.97,1.75-2.7-.58-1.82-1.07-3.75-1.08-5.64,0-1.95,1.15-3.56,3.15-4.1,2.16-.59,3.98,.23,5.34,1.97,.49,.63,.87,1.36,1.21,2.08,.94,1.96,1.15,1.95,3.15,1.35,2.02-.61,4.11-1.17,6.21-1.32,4.62-.34,7.73,1.93,9.73,6.04,.6,1.23,1.57,2.5,2.7,3.21,5.75,3.61,8.26,9,8.73,15.48,.51,7.02-1.09,13.53-5.51,19.15-2.13,2.72-2.87,5.82-3.08,9.17-.36,5.77-3.18,10.29-7.6,13.79-2.47,1.96-5.2,3.6-7.67,5.29,1.28,2.25,2.69,4.48,3.84,6.84,2.81,5.78,2.15,11.51-1.09,16.83-3.13,5.14-8.01,7.47-14.03,7.22-1.18-.05-2.34-.51-3.67-.82-.07,.09-.26,.28-.39,.52-5.4,9.5-13.81,14.69-24.41,15.85-16.69,1.82-30.23-4.28-40.01-17.94-5.3-7.4-7.67-15.87-5.34-24.91,1.93-7.51,5.62-14.14,12.65-18.25,1.23-.72,2.57-1.3,3.92-1.73,2-.65,4.1,.34,5.2,2.4,.59,1.1,1.03,2.31,1.38,3.51,.57,1.98,1.72,3.28,3.41,3.46,2,.21,3.64-.16,4.84-2.14,1.84-3.04,1.61-6.31,1.49-9.57-.2-5.34-1.77-10.31-4.64-14.82-.42-.66-1.41-1.47-2.03-1.39-1.12,.14-1.31,1.25-1.38,2.41-.4,6.78-6.3,13.13-14.52,12.15-3.05-.36-4.91-2.69-4.88-5.74,.03-2.18,1.3-3.73,3.42-4.16,4.26-.86,4.92-2.3,2.82-6.07-1.53-2.74-3.71-4.61-6.79-5.49-11.56-3.3-22.45-1.75-32.77,4.31-2.86,1.68-5.15,3.85-6.8,6.72-1.32,2.3-2.78,4.52-3.98,6.88-2.58,5.06-6.29,8.93-11.01,12.11-6.48,4.37-12.41,9.47-16.72,16.09-1.74,2.67-3.02,5.69-4.2,8.66-1.96,4.93-1.04,9.66,1.76,14.02,1.62,2.52,3.59,4.8,5.25,7.29,2.83,4.26,6.05,8.37,8.18,12.97,4.81,10.43,13.05,14.75,24.03,14.8,3.04,.01,6.11-.2,9.1-.7,3.84-.64,7.51-.31,10.97,1.34,3.32,1.59,6.66,3.24,9.67,5.32,5.56,3.83,11.55,4.75,18.1,3.96,4.83-.59,9.49-1.68,14.13-3.11,2.57-.79,5.44-.83,8.17-.83,8.89,0,17.46-1.08,25.67-4.97,7.38-3.49,14.99-6.55,22.68-9.3,5.2-1.86,10.65-1.81,15.84,.67,3.08,1.47,5.53,3.58,6.77,6.82,.6,1.59,1.6,2.14,3.18,1.88,2.61-.43,5.23-.84,7.84-1.32,7.81-1.45,14.6,.92,20.67,5.66,6.6,5.15,11.03,12.03,14.63,19.44,1.94,4,1.98,8.37,.53,12.5-1.29,3.66-2.59,7.58-4.94,10.55-4.57,5.76-5.42,11.87-3.77,18.69,.22,.89,.34,1.81,.49,2.72,.85,5.1-.35,9.49-4.41,12.92-1.23,1.04-2.4,2.16-3.69,3.13-3.73,2.81-5.48,6.61-5.6,11.18-.1,3.51,.02,7.03-.07,10.54-.08,2.76-.18,5.53-.55,8.27-.48,3.59-2.67,5.97-6.09,7.05-3.09,.98-5.83,2.52-8.18,4.69-8.41,7.76-18.26,9.06-29.04,6.77-5.7-1.21-10.6-3.86-14.77-7.83-2.81-2.69-5.85-3.63-9.75-2.91-5.8,1.08-11.42,.54-16.64-2.79-2.34-1.5-5.06-2.54-7.73-3.36-4.4-1.36-8.39,.52-10.34,4.66-2.69,5.72-2.77,11.57-.49,17.45,1.48,3.83,4.47,6.2,7.91,8.12,5.34,2.98,11.2,4.14,17.14,5.06,9.71,1.51,18.78,5.02,27.65,9.1,2.7,1.24,4.24,3.39,4.82,6.34,.46,2.31,1.37,4.53,1.74,6.85,.28,1.7,.16,3.5-.04,5.23-.19,1.64-.97,3.23-1.06,4.86-.38,6.72-4.01,11.49-9.3,14.98-2.83,1.87-6.22,2.91-9.37,4.3-3.2,1.41-6.56,2.53-9.59,4.24-3.7,2.08-4.88,6.93-2.55,10.52,1.34,2.08,3.42,3.67,5.15,5.51,1.85,1.96,3.73,3.9,5.46,5.96,.72,.86,1.15,2,1.56,3.07,1.43,3.7,.59,6.67-2.25,8.32-3.65,2.11-7.16,1.5-9.67-1.68-2.89-3.65-2.36-7.04,1.49-10.15Zm-12.33-258.48c2.23-.4,3.68-.88,5.38-2.28,3.1-2.55,5.09-5.81,5.64-9.8,.58-4.18,2.2-7.68,5.61-10.32,1.12-.87,2.12-1.98,2.92-3.16,1.71-2.49,.96-5.71-1.59-6.97-.91-.45-1.95-.75-2.96-.85-3.01-.29-5.55-1.42-8.07-3.14-2.06-1.41-4.6-2.4-7.07-2.89-3.49-.7-7.44,2.66-7.88,6.23-.3,2.45,1.16,4.12,2.87,5.38,2.86,2.12,3.96,5.12,4.81,8.32,.67,2.54,0,4.7-2.07,6.33-1.44,1.14-3.02,2.11-4.51,3.19-3.15,2.28-3.09,5.78,.35,7.62,2.03,1.09,4.37,1.58,6.58,2.34Zm26.69-75.31c-.09,5.6-1.11,9.54-2.93,13.26-1.24,2.53-2.69,4.95-3.98,7.46-1.34,2.62-.39,4.21,2.49,4.45,1.37,.11,2.76,.28,4.07,.69,3.4,1.06,6.25,.18,8.7-2.23,2.27-2.24,3.11-5.16,3.18-8.19,.14-5.62,1.65-10.75,4.53-15.56,1.65-2.77,1.86-5.9,1.41-9.06-.67-4.67-4.12-7.19-8.8-6.75-1.78,.17-3.56,.29-5.34,.39-4.54,.25-6.41,3-5.2,7.36,.87,3.15,1.48,6.37,1.9,8.19Zm-11.77,6.76c-.13-1.38-.24-2.36-.3-3.33-.34-5.19-3.56-8.77-8.71-9.65-.91-.15-1.82-.28-2.74-.38-4.78-.52-8.84-2.43-11.93-6.2-.58-.71-1.12-1.46-1.73-2.16-3.91-4.49-10.42-3.8-13.1,1.47-.4,.78-.42,2.21,.05,2.85,.45,.62,1.75,.74,2.71,.85,.83,.09,1.7-.3,2.53-.23,6.04,.52,10.82,4.38,12.43,10.26,.66,2.42,.87,4.97,1.21,7.47,.57,4.23,1.72,8.23,4.46,11.6,2.73,3.35,6.41,3.57,9.36,.41,3.49-3.74,5.21-8.32,5.76-12.98Zm62.21,157.4c.03-.29,.06-.57,.07-.86,.06-1.84-.74-3.2-2.05-3.33-1.74-.17-1.99,1.21-2.36,2.43-.08,.28-.18,.55-.25,.83-1.24,4.78-3.7,8.63-8.18,11-.81,.43-1.64,.84-2.44,1.3-3.11,1.78-3.38,3.38-.89,5.96,1.68,1.74,3.52,3.32,5.22,5.04,2.39,2.43,3.17,5.41,2.77,8.74-.51,4.32-2.48,7.96-5.14,11.31-2.53,3.19-5.82,4.88-9.77,5.62-2.01,.37-4.02,.94-5.88,1.77-1.2,.53-2.06,1.81-1.7,3.28,.14,.58,.85,1.3,1.43,1.46,1.47,.41,2.29-.7,3.05-1.76,1.48-2.03,2.13-2.24,4.54-1.44,.6,.2,1.16,.51,1.77,.67,7.41,2.02,12.19,.64,12.21-8.13,0-.23,0-.46,.02-.69,.29-3.05,1.05-6.01,3.34-8.12,2.74-2.53,3.61-5.52,3.63-9.12,.01-1.75,.72-3.56,1.44-5.21,.51-1.17,1.56-2.11,2.39-3.15,2.95-3.7,2.92-8.38-.4-10.96-2.31-1.8-2.85-4.03-2.8-6.66Zm-128.32-12.2c4.07-.01,7.91-.86,11.59-2.51,2.45-1.09,4.39-2.72,5.7-5.08,.95-1.71,1.92-3.42,2.92-5.1,2.22-3.73,5.12-6.64,9.45-7.86,.92-.26,1.83-.76,2.58-1.35,.42-.33,.78-1.13,.68-1.61-.09-.44-.8-.97-1.32-1.06-1.41-.26-2.86-.43-4.29-.44-7.03-.07-13.31,1.67-18.03,7.37-1.54,1.86-3.34,3.5-5.07,5.2-6.29,6.19-14.88,7.23-22.16,2.1-2.21-1.56-4.26-3.34-6.48-4.87-1-.69-2.22-1.28-3.41-1.43-1.62-.2-2.9,.79-3.55,2.26-.61,1.37-.16,2.63,1.14,3.44,2.18,1.37,4.32,2.83,6.61,3.99,7.44,3.77,15.28,6.27,23.63,6.96ZM103.25,34.3c-3.51,.24-6.73,.98-9.34,3.36-1.91,1.74-3.82,3.51-5.58,5.4-3.4,3.65-7.12,6.33-12.47,6.42-4.21,.07-6.51,2.29-7.45,6.41-.59,2.57-.89,5.22-1.19,7.85-.32,2.81-1.49,4.76-4.47,5.35-.83,.16-1.62,.6-2.37,1.02-1.5,.84-2.42,2.14-2.52,3.88-.14,2.35,2.26,4.06,4.21,2.79,2.85-1.86,5.67-1.67,8.76-.92,5.27,1.29,8.55-1.2,8.92-6.58,.12-1.65,.6-3.08,1.68-4.41,.92-1.14,1.64-2.52,2.13-3.9,.83-2.32,1.51-4.71,2.09-7.11,1.26-5.25,4.14-9.37,8.66-12.23,3.3-2.09,6.72-4.1,10.91-2.05,1.05,.52,2.28,.18,2.81-1,.55-1.23,.27-2.49-1.03-3.1-1.17-.55-2.48-.81-3.73-1.19Zm11.68,153.59c3.77-.28,6.27-1.73,8.49-3.59,3.65-3.07,7.45-5.76,12.33-6.45,1.08-.15,2.06-.73,2-2-.06-1.31-1.06-1.84-2.23-1.99-1.76-.24-3.53-.45-5.3-.61-.43-.04-.93,.05-1.32,.24-2.67,1.32-5.38,2.61-7.98,4.07-3.68,2.06-7.42,2.62-11.16,.45-2.28-1.32-4.33-3.02-6.46-4.59-1.99-1.47-3.91-3.04-5.93-4.46-1.45-1.01-3.09-1.53-4.91-1.04-5.48,1.47-9.84-.14-13.11-4.77-.93-1.31-2.16-2.41-3.76-1.58-1.71,.89-.91,2.58-.43,3.85,1.36,3.57,4.06,6.08,7.07,8.27,2.94,2.15,6.41,2.38,9.86,2.63,5.17,.37,9.96,1.66,13.78,5.49,1.25,1.26,2.61,2.47,4.1,3.44,1.75,1.14,3.69,1.98,4.97,2.65Zm36.31,97.58c-2.26,.32-3.39,1.66-3.01,4.39,.23,1.64,.51,3.36,1.23,4.81,1.75,3.49,3.72,6.87,5.7,10.23,4.42,7.47,10.46,12.42,19.62,12.64,1.3,.03,3.27,.59,3.72,1.51,.9,1.82,2.19,2.88,3.9,3.35,2.81,.76,5.68,1.34,8.56,1.73,3.13,.43,6.34,.33,8.76,2.94,.45,.48,1.44,.46,2.19,.67-.04-.84-.01-1.69-.16-2.5-.06-.34-.49-.61-.77-.91-4.08-4.37-9.14-6.88-14.99-7.92-2.48-.44-4.98-.88-7.41-1.53-2.37-.63-4.67-1.53-7-2.31-2.22-.74-4.61-1.16-6.62-2.27-7.39-4.08-9.29-11.12-9.49-18.86-.08-3.09,.21-6.19,.36-9.29,.06-1.24-.11-2.63,.38-3.7,1.16-2.54,2.63-4.93,4.01-7.37,.57-1,1.11-2.06,.18-3-.99-.99-2.24-.61-3.13,.17-.93,.82-1.93,1.8-2.35,2.91-.75,2.02-1.11,4.18-1.6,6.29-.15,.66-.13,1.37-.31,2.02-.52,1.9-1.11,3.78-1.77,5.99Zm4.38-174.87c.65,.49,1.07,.79,1.47,1.11,2.59,2.08,5.46,1.48,7.03-1.46,1.49-2.8,.78-6.24-2.01-8.3-1.55-1.14-3.38-1.93-5.15-2.72-3.34-1.5-3.62-1.86-3.43-5.52,0-.11,.02-.23,.02-.34,0-2.41-2.1-3.71-4.12-2.44-.94,.59-1.82,1.43-2.47,2.34-3.97,5.58-4.12,15.51-.21,21.09,.87,1.24,2.26,2.36,3.65,2.96,2.55,1.08,5.04-.73,5.23-3.51,.06-.96,0-1.92,0-3.2Zm18.21,152.18c.04,.16,.09,.32,.13,.49,1.78,.06,3.22-.59,3.89-2.27,.62-1.57,.25-3.09-1.03-4.24-1.34-1.2-2.92-1.3-4.49-.52-.7,.35-1.26,.96-1.9,1.45-1.21,.92-2.41,1.85-3.63,2.75-.51,.37-1.12,.61-1.59,1.02-1.12,.98-.93,2.35,.47,2.84,.69,.24,1.57,.12,2.32-.04,1.96-.43,3.89-.97,5.84-1.47ZM102.22,46.95c-.16-1.72-.88-2.91-2.44-3.39-1.59-.49-2.63,.4-3.35,1.73-.24,.45-.5,.93-.57,1.43-.3,2.08-.94,3.93-2.41,5.56-.46,.51-.11,1.75-.13,2.66,.9-.08,2.06,.16,2.64-.31,1.8-1.49,3.46-3.17,5.01-4.93,.64-.72,.85-1.82,1.26-2.74Zm79.74-5.92c.38-.04,1.09,.04,1.62-.23,.65-.33,1.5-.88,1.61-1.47,.14-.7-.17-1.96-.69-2.24-1.46-.79-2.42-1.8-3.1-3.33-.48-1.08-1.77-1.4-2.83-.81-.57,.31-1.09,1.2-1.13,1.85-.06,1.05,.26,2.14,.49,3.19,.44,2.01,1.73,3.01,4.04,3.03ZM43.57,112.14c-.21-1.42-.22-2.43-.54-3.33-.31-.87-.76-1.89-1.47-2.38-1.1-.76-2.44-.66-3.45,.42-.97,1.04-.9,2.24-.13,3.32,1.1,1.54,2.41,2.92,2.23,5.05-.03,.32,.6,.96,.95,.98,.46,.02,1.2-.32,1.36-.7,.5-1.19,.78-2.47,1.04-3.35Zm185.35,60.4c-.07,.1-.15,.19-.22,.29-.28,.03-.64-.05-.84,.1-1.72,1.28-3.43,2.57-5.08,3.94-.2,.16-.13,.94,.09,1.23,.22,.3,.85,.58,1.18,.47,1.98-.66,3.99-1.32,5.86-2.24,.63-.31,1.43-1.64,1.23-2.02-.41-.77-1.44-1.2-2.22-1.77Zm36.95,34.66c-.62-.4-1.53-1.27-1.81-1.1-.93,.56-1.93,1.37-2.33,2.33-.37,.88,.52,1.55,1.56,1.52,1.2-.03,2.33-1.19,2.58-2.75Zm-59.36,123.72l.05-.67c-.57-.34-1.11-.89-1.7-.94-.39-.04-.85,.64-1.28,.99,.43,.45,.8,1.15,1.31,1.26,.47,.11,1.08-.4,1.63-.64ZM72.86,158.14c.59-.96,1.2-1.5,1.14-1.96-.06-.49-.75-.9-1.16-1.35-.42,.44-1.14,.85-1.18,1.32-.04,.48,.58,1.03,1.2,2Zm110.94,102.12c-.85-.59-1.35-1.19-1.75-1.14-.47,.07-.84,.72-1.26,1.12,.41,.39,.78,1.04,1.23,1.1,.41,.06,.91-.52,1.78-1.09Z"
           id="path24"
           style="fill:#ffffff" />
        <path
           d="M304.61,220.63c-2.53,3.52-5.98,5.02-10.18,4.94-3.49-.07-5.34-1.89-5.79-5.31-.45-3.45,.62-6.32,2.66-9.01,3.84-5.06,7.42-10.27,9.67-16.28,2.21-5.89,1.98-11.48-1.59-16.82-1.43-2.13-3.24-3.76-5.62-4.68-3.93-1.52-6.12-4.2-6.42-8.53-.25-3.56-2.31-5.95-5.66-7.14-4.22-1.5-8.44-3.04-12.72-4.38-3.37-1.05-6.83-.6-10.28-.12-2.66,.37-5.37,.53-8.06,.54-1.84,0-3.36-.92-3.99-2.78-.64-1.91,.06-3.58,1.43-4.87,2.87-2.7,6.38-3.53,10.09-2.49,1.74,.49,3.19,.32,4.83-.11,11.11-2.86,21.36-1.16,30.49,6.04,4.15,3.27,6.85,7.42,7.44,12.79,.12,1.13,.45,1.99,1.76,2.44,6.65,2.27,13.89,9.37,12.25,20.08-.31,2,.05,3.72,.87,5.49,3.23,6.99,4.09,14.25,1.95,21.71-.52,1.81-1.29,3.59-2.21,5.23-2.55,4.56-6.02,5.57-10.93,3.24Zm7.36-15.28s-.09,0-.14-.01c0-.46,.14-.98-.03-1.37-.31-.73-.8-1.39-1.21-2.08-.71,.45-1.68,.74-2.1,1.39-1.18,1.83-2.26,3.75-3.12,5.75-.53,1.22-.81,2.65-.79,3.99,.03,1.88,1.84,2.89,3.61,2.23,1.72-.65,2.68-2,2.98-3.73,.35-2.04,.54-4.1,.79-6.15Z"
           id="path26"
           style="fill:#ffffff" />
        <path
           d="M18.62,157.43c-.93,.2-1.86,.49-2.81,.59-4.28,.47-7.7-1.37-9.96-4.72-4.84-7.18-7.12-14.92-3.83-23.52,.67-1.76,1.35-3.65,1.37-5.48,.01-1.61-.62-3.41-1.47-4.81-1.97-3.24-2.56-6.53-1.08-10.04,1.57-3.72,5.13-5.83,9.1-5.58,4.41,.27,8.27,3.28,9.59,7.53,.86,2.76,.59,5.48-.56,8.09-2.09,4.74-3.18,9.72-3.65,14.86-.36,4,.83,7.55,3.38,10.56,.76,.9,2.04,1.46,3.18,1.92,2.29,.92,4.68,1.6,6.99,2.49,7.31,2.82,12.59,8,16.48,14.63,2.25,3.83,3.22,8.03,2.05,12.46-2.14,8.11-10.95,9.64-16.76,4.61-2.23-1.93-3.69-4.39-4.24-7.35-.09-.46-.34-1.01-.7-1.29-4.74-3.7-7.09-8.51-6.94-14.53,0-.11-.07-.21-.15-.42Zm21.37,14.49c-.99-1.59-1.79-3.09-2.8-4.43-1.69-2.24-3.51-4.39-5.31-6.54-.66-.78-1.31-1.74-2.18-2.13-.72-.32-2.02-.23-2.58,.24-.41,.34-.3,1.74,.03,2.44,.43,.89,1.27,1.62,2.04,2.3,1.25,1.09,2.64,2.04,3.9,3.12,1.3,1.11,2.16,2.25,1.29,4.25-.34,.78,.35,2.33,1.04,3.13,.44,.52,1.95,.68,2.6,.31,.81-.45,1.22-1.6,1.98-2.7ZM13.3,115.17c-.33-.87-.65-2.22-1.31-3.38-.7-1.24-1.92-1.76-3.39-1.29-2.12,.67-2.84,3.51-.85,5.13,2.01,1.64,2.14,2.85,.89,4.91-.81,1.34-.11,2.9,1.06,3.13,1.5,.3,2.3-.64,2.57-1.92,.42-2.01,.65-4.05,1.04-6.58Z"
           id="path28"
           style="fill:#ffffff" />
        <path
           d="M143.49,267.49c-.46,1.48-1.33,4.45-2.3,7.38-1.55,4.69-3.43,9.29-4.69,14.06-1.4,5.34-.11,10.39,2.9,15,1.04,1.59,2.22,3.1,3.09,4.78,.34,.65,.29,1.92-.14,2.43-.52,.62-1.72,1.12-2.48,.97-1.18-.23-2.38-.89-3.34-1.66-4.26-3.44-6.58-8.21-8.68-13.11-.84-1.95-1.66-3.92-2.71-5.76-2.85-4.99-1.85-11.26,2.66-14.77,1.51-1.17,1.54-2.34,1.02-3.89-1.28-3.79-.86-7.39,1.38-10.73,1.32-1.96,3.19-3.18,5.52-3.53,4.76-.71,7.93,2.26,7.77,8.83Z"
           id="path30"
           style="fill:#ffffff" />
        <path
           d="M89.83,122.45c2.89,2.48,2.76,5.41,2.01,8.44-.78,3.12,.04,5.76,2.2,8.1,1.57,1.71,2.9,3.6,3.1,6.03,.28,3.33-1.84,4.89-4.91,3.59-3.3-1.41-5.57-3.96-6.96-7.14-1.54-3.54-3.73-6.56-6.11-9.55-6.98-8.81-2.19-20.86,8.93-22.67,3.75-.61,7.01,1.28,8.04,4.65,.7,2.3,.09,4.22-1.87,5.61-1.39,.98-2.84,1.88-4.45,2.94Z"
           id="path32"
           style="fill:#ffffff" />
        <path
           d="M213.74,255.26c-2.5-.78-5.08-1.37-7.49-2.37-2.86-1.19-5.56-2.78-8.36-4.12-3.83-1.83-7.76-3.17-12.14-2.71-1.83,.19-2.49-.84-1.87-2.57,1.86-5.22,4.46-6.43,9.81-4.57,1.09,.38,2.18,.73,3.28,1.07,1.78,.55,3.47,.43,5.2-.36,3.99-1.82,7.98-2.07,11.9,.3,.34,.2,1.07,.05,1.46-.19,3.23-2.03,6.03-2.02,8.42,.09,2.42,2.14,2.94,5.67,1.31,8.86-1.98,3.88-6.15,6.12-11.41,6.14-.05,.15-.09,.29-.14,.44Z"
           id="path34"
           style="fill:#ffffff" />
        <path
           d="M239.76,95.77c-1.77,.03-3.21-.38-3.87-1.98-.69-1.68,.26-2.86,1.5-3.86,4.37-3.52,6.57-7.99,6.3-13.7-.23-4.82,1.79-8.71,5.54-11.72,1.08-.87,2.03-1.95,3.22-2.59,1.43-.76,3.02-1.5,4.6-1.62,2.67-.21,4.38,1.9,3.47,4.39-.94,2.57-.69,4.07,1.75,5.76,3.1,2.16,2.95,6.64-.07,9.15-1.6,1.34-3.6,2.21-5.48,3.19-.86,.44-1.84,.64-2.78,.91-2.19,.63-3.67,1.91-4.45,4.15-1.36,3.86-3.93,6.59-8.02,7.65-.33,.09-.67,.16-1.01,.21-.28,.04-.57,.04-.7,.05Z"
           id="path36"
           style="fill:#ffffff" />
        <path
           d="M186.48,159.25c-2.69,.02-3.23-.48-3.28-2.43-.03-1.34-.79-1.98-2.02-1.44-3.12,1.36-6.42,1.26-9.68,1.31-2.62,.04-4.8-1.86-5.18-4.42-.27-1.8,.78-2.94,2.2-3.77,1.74-1.02,4.23-1.08,5.29,.35,2.17,2.92,4.67,2.07,7.02,.78,2.25-1.23,4.23-2.95,6.31-4.48,2.46-1.8,4.79-3.8,7.37-5.39,2.48-1.52,5.3-1.89,8.17-.99,1.54,.48,2.67,1.32,2.71,3.13,.04,1.82-.94,2.91-2.5,3.55-.79,.32-1.67,.44-2.47,.76-1.4,.55-1.7,1.45-.99,2.72,1.12,2.01,1.11,2.98-.58,4.54-3.66,3.39-8.12,5.12-12.36,5.79Z"
           id="path38"
           style="fill:#ffffff" />
        <path
           d="M113.29,4.3c1.95-4.86,11.33-4.77,13.78-1.84,.71,.86,.98,2.09,1.59,3.46,1.36-.88,2.94-1.79,4.39-2.86,1.92-1.41,3.82-2.78,6.29-3.03,2.14-.22,4.09,.68,4.68,2.18,.64,1.62,.14,3.7-1.72,4.82-2.14,1.29-4.46,2.56-6.86,3.08-6.32,1.35-12.68,1.55-18.85-.99-2.56-1.05-5.12-.24-7.64,.26-1.17,.23-2.29,.74-3.44,1.11-1.09,.35-2.18,.77-3.3,1.01-2.07,.44-3.99-.34-4.46-1.7-.49-1.4,.29-2.93,2.19-4.07,3.71-2.22,7.72-2.43,11.86-1.6,.39,.08,.79,.15,1.19,.22,.05,0,.11-.02,.31-.05Z"
           id="path40"
           style="fill:#ffffff" />
        <path
           d="M12.51,57.57c0-3.99,3.41-7.82,7.34-8.35,.65-.09,1.33-.56,1.84-1.02,2.33-2.13,4.95-3.32,8.17-2.71,1.54,.29,2.63,1.17,3.08,2.68,.45,1.53-.27,2.73-1.41,3.62-1.13,.88-2.37,1.61-3.58,2.39-2.14,1.39-4.02,2.94-4.91,5.53-.78,2.28-4.28,3.97-6.56,3.46-2.3-.51-3.97-2.87-3.97-5.61Z"
           id="path42"
           style="fill:#ffffff" />
        <path
           d="M87.89,205.64c-3.54,.34-7.53-3.94-4.79-8.1,.37-.56,1.43-1.04,2.11-.96,2.1,.24,4.2,.66,6.25,1.23,1.19,.33,2.37,.92,3.36,1.65,1.88,1.39,2.37,3.35,1.49,4.98-.93,1.73-3.38,2.63-5.4,2.01-1-.3-2.01-.54-3.01-.81Z"
           id="path44"
           style="fill:#ffffff" />
        <path
           d="M125.3,88.12c0-2.68,1.44-5.05,3.64-5.95,1.89-.77,3.98-.31,5.34,1.23,1.31,1.48,.68,2.91-.05,4.45-.53,1.1-.93,2.37-.95,3.58-.07,3.61-2.38,3.59-4.68,2.51-2.33-1.1-3.29-3.25-3.29-5.81Z"
           id="path46"
           style="fill:#ffffff" />
        <path
           d="M38.3,36.26c2,.31,3.73,.83,4.63,2.72,.77,1.61,.27,3.87-1.53,5.23-1.3,.98-2.98,1.55-4.57,2.02-.44,.13-1.35-.65-1.75-1.21-.53-.73-.67-1.73-1.16-2.51-1.24-2.01-.81-4.09,1.34-5.24,.93-.5,2.02-.68,3.04-1.01Z"
           id="path48"
           style="fill:#ffffff" />
        <path
           d="M206.8,.81c2.6,0,4.47,1.6,4.44,3.8-.04,2.44-2.5,4.78-5.17,4.49-3.36-.36-4.55-.86-4.66-3.63-.1-2.56,2.36-4.65,5.39-4.66Z"
           id="path50"
           style="fill:#ffffff" />
      </g>
    </g>
  </g>
</svg>
