<?xml version="1.0" encoding="UTF-8" standalone="no"?>
<svg
   xmlns:dc="http://purl.org/dc/elements/1.1/"
   xmlns:cc="http://creativecommons.org/ns#"
   xmlns:rdf="http://www.w3.org/1999/02/22-rdf-syntax-ns#"
   xmlns:svg="http://www.w3.org/2000/svg"
   xmlns="http://www.w3.org/2000/svg"
   xmlns:sodipodi="http://sodipodi.sourceforge.net/DTD/sodipodi-0.dtd"
   xmlns:inkscape="http://www.inkscape.org/namespaces/inkscape"
   id="Ebene_2"
   viewBox="0 0 251.31 381.53"
   version="1.1"
   sodipodi:docname="rune.svg"
   inkscape:version="1.0.2 (e86c870879, 2021-01-15, custom)">
  <metadata
     id="metadata12">
    <rdf:RDF>
      <cc:Work
         rdf:about="">
        <dc:format>image/svg+xml</dc:format>
        <dc:type
           rdf:resource="http://purl.org/dc/dcmitype/StillImage" />
      </cc:Work>
    </rdf:RDF>
  </metadata>
  <sodipodi:namedview
     pagecolor="#ffffff"
     bordercolor="#666666"
     borderopacity="1"
     objecttolerance="10"
     gridtolerance="10"
     guidetolerance="10"
     inkscape:pageopacity="0"
     inkscape:pageshadow="2"
     inkscape:window-width="820"
     inkscape:window-height="480"
     id="namedview10"
     showgrid="false"
     inkscape:zoom="2.6419941"
     inkscape:cx="125.655"
     inkscape:cy="190.765"
     inkscape:window-x="0"
     inkscape:window-y="0"
     inkscape:window-maximized="0"
     inkscape:current-layer="Ebene_2" />
  <defs
     id="defs4">
    <style
       id="style2">.cls-1{fill:#1d1d1b;}</style>
  </defs>
  <g
     id="Ebene_2-2"
     style="fill:#ffffff">
    <path
       class="cls-1"
       d="M224.31,29.99l-36.09-21.88c-17.78-10.78-40.06-10.83-57.88-.13L27.21,69.86C6.75,82.14-3.69,106.03,1.19,129.38l43.39,207.55c6.82,32.61,40.42,52.11,72.12,41.85l64.64-20.92c20.46-6.62,35.33-24.37,38.26-45.68l31.18-226.62c3.05-22.14-7.35-43.98-26.47-55.56Zm-99.15,243.79l-23.12,2.38-17-165.46,23.12-2.38,4.91,47.78,33.85-50.74,19.33,12.9-49.46,74.13,8.36,81.39Z"
       id="path6"
       style="fill:#ffffff" />
  </g>
</svg>
